<svg xmlns="http://www.w3.org/2000/svg" version="1.1" xmlns:xlink="http://www.w3.org/1999/xlink" xmlns:svgjs="http://svgjs.dev/svgjs" width="1000" height="969" viewBox="0 0 1000 969"><g transform="matrix(1,0,0,1,-0.6060606060606233,-34.55005918560596)"><svg viewBox="0 0 396 384" data-background-color="#ffffff" preserveAspectRatio="xMidYMid meet" height="969" width="1000" xmlns="http://www.w3.org/2000/svg" xmlns:xlink="http://www.w3.org/1999/xlink"><g id="tight-bounds" transform="matrix(1,0,0,1,0.2400000000000091,68.39999999999995)"><svg viewBox="0 0 395.52 247.2" height="247.2" width="395.52"><g><svg></svg></g><g><svg viewBox="0 0 395.52 247.2" height="247.2" width="395.52"><g transform="matrix(1,0,0,1,118.319808,47.215199999999996)"><svg viewBox="0 0 158.880384 152.7696" height="152.7696" width="158.880384"><g><svg viewBox="0 0 158.880384 152.7696" height="152.7696" width="158.880384"><g><svg viewBox="0 0 158.880384 152.7696" height="152.7696" width="158.880384"><g><svg viewBox="0 0 158.880384 152.7696" height="152.7696" width="158.880384"><g id="textblocktransform"><svg viewBox="0 0 158.880384 152.7696" height="152.7696" width="158.880384" id="textblock"><g><svg viewBox="0 0 158.880384 152.7696" height="152.7696" width="158.880384"><g transform="matrix(1,0,0,1,0,0)"><svg width="158.880384" viewBox="2.3299999237060547 -35 36.400001525878906 35" height="152.7696" data-palette-color="#8789fe"><path d="M8.03 0L2.33 0 7.08-35 11.65-35 20.55-18.25 29.4-35 34-35 38.73 0 33.02 0 29.58-27.6 31.03-27.33 20.6-7.9 10.03-27.3 11.48-27.58 8.03 0Z" opacity="1" transform="matrix(1,0,0,1,0,0)" fill="#8789fe" class="wordmark-text-0" data-fill-palette-color="primary" id="text-0"></path></svg></g></svg></g></svg></g></svg></g><g></g></svg></g></svg></g></svg></g><g><path d="M118.172 11.15A79.44 79.44 0 0 1 277.348 11.15L263.571 11.15A65.663 65.663 0 0 0 131.949 11.15L118.172 11.15M118.172 236.05A79.44 79.44 0 0 0 277.348 236.05L263.571 236.05A65.663 65.663 0 0 1 131.949 236.05L118.172 236.05" fill="#8789fe" stroke="transparent" data-fill-palette-color="tertiary"></path></g></svg></g><defs></defs></svg><rect width="395.52" height="247.2" fill="none" stroke="none" visibility="hidden"></rect></g></svg></g></svg>